<?xml version="1.0" encoding="utf-8"?>
<!-- Generator: Adobe Illustrator 22.1.0, SVG Export Plug-In . SVG Version: 6.00 Build 0)  -->
<svg version="1.1" id="Layer_1" xmlns="http://www.w3.org/2000/svg" xmlns:xlink="http://www.w3.org/1999/xlink" x="0px" y="0px"
	 viewBox="0 0 265.7 226.7" style="enable-background:new 0 0 265.7 226.7;" xml:space="preserve">
<style type="text/css">
	.st0{fill:#34495E;}
	.st1{fill:#FF4E8C;}
	.st2{fill:#41B883;}
</style>
<g>
	<polygon class="st0" points="197.3,68.8 244.7,63.6 231.6,45.7 204,48.7 215.2,23.4 202.1,5.5 182.9,49.1 	"/>
	<path class="st1" d="M196.6,70.2l-15.4-20.9l20.5-46.6l15,20.5l-10.5,23.9l25.9-2.8l15,20.5L196.6,70.2z M184.5,48.9l13.4,18.3
		l44.1-4.8l-11.2-15.2l-29.2,3.2l11.8-26.9L202.4,8.3L184.5,48.9z"/>
	<polygon class="st2" points="187.3,79.3 228.9,61 210.2,40.3 186,50.9 198.9,27.9 180.1,7.2 157.9,46.8 	"/>
	<path class="st1" d="M187,81L156.2,47l23.7-42.2l20.8,22.9L189.2,48l21.3-9.3l20.8,22.9L187,81z M159.6,46.6l28.1,30.9l38.9-17.1
		L209.8,42l-27.1,11.9l14.5-25.8L180.4,9.6L159.6,46.6z"/>
	<polygon class="st0" points="182.3,81.8 222.8,58.6 204,47.7 180.5,61.2 180.5,34.1 161.8,23.3 161.7,69.9 	"/>
	<path class="st1" d="M181.8,83.3l-21.9-12.7L160,21l21.4,12.4l0,25.3l22-12.6l21.4,12.4L181.8,83.3z M162.7,69.1l19.2,11.1
		l37.6-21.6l-15.9-9.2l-24.9,14.3l0.1-28.7l-15.9-9.2L162.7,69.1z"/>
	<polygon class="st2" points="195.9,108.2 237.5,84.2 197.2,60.9 173,74.8 173.1,46.9 132.8,23.5 132.7,71.6 	"/>
	<path class="st1" d="M195.3,109.6l-64.3-37.3l0.1-51.1L174,46.1l0,26.2l22.7-13.1l42.9,24.9L195.3,109.6z M133.7,70.7l61.7,35.8
		l38.8-22.3l-37.4-21.7l-25.6,14.7l0.1-29.6l-37.4-21.7L133.7,70.7z"/>
	<polygon class="st0" points="123.2,131.5 112,31.7 156.4,51.1 162.5,105.6 206.7,73.1 251,92.5 170.2,152 	"/>
	<path class="st1" d="M113.7,33.9L155.1,52l6.3,56.2l45.5-33.5l41.4,18.1L170,150.4l-45.5-19.9L113.7,33.9 M110.4,29.4l0.5,4.8
		l10.8,96.6l0.2,1.6l1.5,0.6l45.5,19.9l1.5,0.6l1.3-1l78.2-57.6l3.9-2.9l-4.5-1.9L208,72.1l-1.5-0.6l-1.3,1l-41.6,30.6l-5.7-51.3
		l-0.2-1.6l-1.5-0.6l-41.4-18.1L110.4,29.4z"/>
	<polygon class="st2" points="76.7,153.3 75.3,57 132.8,75.3 133.6,126.4 163.7,85.2 221.2,103.5 164.3,181.2 	"/>
	<path class="st1" d="M76.3,59l54.6,17.4l0.8,54.2l32-43.8l54.6,17.4l-55.1,75.3l-85.7-27.3l-1.3-92.8 M73,55.4l0.9,4l1.9,92.6
		l0,1.9l1.9,0.6l84.7,27l1.9,0.6l1.2-1.6l54.4-74.4l2.3-3.1l-3.7-1.2l-54-17.2l-1.9-0.6l-1.2,1.6l-26.7,36.5l-0.9-45.6l0-1.9
		l-1.9-0.6l-55-17.5L73,55.4z"/>
	<polygon class="st0" points="106.6,191.2 56.4,104.3 104.8,104.3 132.3,151.8 159.7,104.3 208.1,104.3 157.9,191.2 	"/>
	<path class="st1" d="M205.7,106.2l-48.6,84.1h-49.7l-48.6-84.1H104l28.3,48.9l28.3-48.9H205.7 M210.6,103.4h-4.9h-45.2h-1.6
		l-0.8,1.4l-25.8,44.7l-25.8-44.7l-0.8-1.4H104H58.9H54l2.4,4.2l48.6,84.1l0.8,1.4h1.6h49.7h1.6l0.8-1.4l48.6-84.1L210.6,103.4z"/>
	<polygon class="st2" points="58.2,223 8,136.1 105.4,136.1 132.8,183.6 160.3,136.1 257.6,136.1 207.4,223 	"/>
	<path class="st1" d="M255.2,137l-48.6,84.1H59L10.5,137h94.1l28.3,48.9l28.3-48.9h94.2 M260,134.2h-4.9h-94.1h-1.6l-0.8,1.4
		l-25.8,44.7L107,135.6l-0.8-1.4h-1.6H10.5H5.6l2.4,4.2l48.6,84.1l0.8,1.4H59h147.6h1.6l0.8-1.4l48.6-84.1L260,134.2z"/>
</g>
</svg>
