<svg id="Layer_1" data-name="Layer 1" xmlns="http://www.w3.org/2000/svg" viewBox="0 0 265.66 226.69"><defs><style>.cls-1{fill:#34495e;}.cls-2{fill:#ff4e8c;}.cls-3{fill:#41b883;}.cls-4{fill:none;stroke:#000;stroke-width:0.2px;}</style></defs><title>logo</title><polygon class="cls-1" points="199.96 70.69 250.62 65.13 236.61 46.03 207.15 49.27 219.07 22.13 205.06 3.04 184.55 49.69 199.96 70.69"/><path class="cls-2" d="M199.27,72.28l-16.44-22.4L204.74.06l16,21.89L209.56,47.5l27.74-3,16.06,21.89Zm-13-22.78,14.39,19.61,47.21-5.19-12-16.3-31.18,3.43,12.62-28.73L205.39,6Z"/><polygon class="cls-3" points="189.31 81.92 233.8 62.39 213.72 40.27 187.85 51.63 201.67 26.98 181.6 4.85 157.84 47.22 189.31 81.92"/><path class="cls-2" d="M188.93,83.73,156,47.43,181.31,2.3,203.5,26.77,191.35,48.45l22.76-10,22.2,24.47ZM159.67,47l30,33.1,41.59-18.25L213.34,42.07l-29,12.73,15.48-27.62L181.89,7.4Z"/><polygon class="cls-1" points="183.96 84.67 227.19 59.81 207.15 48.19 182 62.65 182.05 33.64 162 22.01 161.91 71.88 183.96 84.67"/><path class="cls-2" d="M183.41,86.19,160,72.62l.1-53L183,32.9,183,60l23.5-13.51,22.9,13.27ZM162.92,71l20.55,11.92L223.7,59.81l-17-9.89L180,65.24l.05-30.74L163,24.61Z"/><polygon class="cls-3" points="198.42 112.82 242.96 87.21 199.91 62.25 174 77.14 174.05 47.26 131 22.3 130.91 73.68 198.42 112.82"/><path class="cls-2" d="M197.79,114.4,129,74.52l.1-54.67L175,46.46,175,74.53l24.33-14,45.9,26.61ZM131.91,72.81l66,38.28L239.47,87.2,199.41,64,172,79.74l.05-31.62L132,24.9Z"/><polygon class="cls-1" points="120.67 137.75 108.76 31.03 156.19 51.78 162.7 110.13 209.98 75.31 257.4 96.06 170.94 159.74 120.67 137.75"/><path class="cls-2" d="M110.54,33.44,154.79,52.8l6.71,60.08L210.17,77l44.25,19.36L170.74,158l-48.67-21.3L110.54,33.44M107,28.61l.58,5.17,11.53,103.28.19,1.72,1.59.69,48.67,21.3,1.59.69,1.39-1L256.2,98.81l4.18-3.08-4.75-2.08L211.37,74.29l-1.58-.7-1.4,1-44.48,32.77-6.14-54.92-.19-1.72L156,50.06,111.74,30.7Z"/><polygon class="cls-3" points="71 161.06 69.52 58.12 131 77.73 131.79 132.32 164.03 88.26 225.51 107.86 164.72 190.94 71 161.06"/><path class="cls-2" d="M70.56,60.21,129,78.84l.84,58L164.1,90l58.43,18.64-58.9,80.49L72,159.94,70.56,60.69M67,56.37l1,4.31,2,99.07,0,2,2,.66,90.55,28.87,2.05.65,1.27-1.73,58.21-79.55,2.45-3.34-4-1.26L164.91,87.67l-2-.65-1.27,1.73L133,127.83,132,79.1l0-2-2.09-.67L71,57.66Z"/><polygon class="cls-1" points="103 201.69 49.31 108.69 101.07 108.69 130.44 159.54 159.79 108.69 211.56 108.69 157.86 201.69 103 201.69"/><path class="cls-2" d="M209,110.69l-52,90H103.87l-52-90h48.3L130.44,163l30.22-52.35H209m5.15-3H158.92l-.86,1.5L130.44,157l-27.63-47.85-.87-1.5H46.71l2.6,4.5,52,90,.87,1.5h56.59l.87-1.5,52-90Z"/><polygon class="cls-3" points="51.23 235.69 -2.46 142.69 101.65 142.69 131.02 193.54 160.37 142.69 264.48 142.69 210.79 235.69 51.23 235.69"/><path class="cls-2" d="M261.89,143.69l-52,90H52.1l-52-90H100.79L131,196l30.22-52.35H262m5.08-3H159.5l-.86,1.5L131,190l-27.64-47.85-.86-1.5H-5.06l2.6,4.5,52,90,.86,1.5h161.3l.86-1.5,52-90Z"/><line class="cls-4" x1="37.85" y1="0.06" x2="37.85" y2="23.73"/><line class="cls-4" x1="0.14" y1="35.57" x2="25.28" y2="35.57"/><line class="cls-4" x1="0.14" y1="191.18" x2="25.28" y2="191.18"/><line class="cls-4" x1="37.85" y1="226.69" x2="37.85" y2="203.02"/><line class="cls-4" x1="227.94" y1="0.06" x2="227.94" y2="23.73"/><line class="cls-4" x1="265.66" y1="35.57" x2="240.51" y2="35.57"/><line class="cls-4" x1="265.66" y1="191.18" x2="240.51" y2="191.18"/><line class="cls-4" x1="227.94" y1="226.69" x2="227.94" y2="203.02"/></svg>